<svg width="128" height="129" viewBox="0 0 128 129" fill="none" xmlns="http://www.w3.org/2000/svg">
<rect x="18.2953" y="18.6865" width="91.4036" height="91.4036" fill="white" stroke="white" stroke-width="4"/>
<path d="M93.9971 2.38818C111.67 2.38818 125.997 16.7151 125.997 34.3882V94.3882C125.997 112.061 111.67 126.388 93.9971 126.388H33.9971C16.324 126.388 1.99707 112.061 1.99707 94.3882V34.3882C1.99707 16.7151 16.324 2.38818 33.9971 2.38818H93.9971ZM37.1943 63.4019C34.2316 63.4019 31.8301 65.8034 31.8301 68.7661V94.8384C31.8301 97.8012 34.2316 100.203 37.1943 100.203H55.4766C58.4393 100.203 60.8418 97.8012 60.8418 94.8384V68.7661C60.8417 65.8034 58.4393 63.4019 55.4766 63.4019H37.1943ZM79.4834 28.5737C76.5207 28.5738 74.1191 30.9753 74.1191 33.938V94.8384C74.1193 97.801 76.5208 100.203 79.4834 100.203H90.8018C93.7643 100.202 96.1659 97.801 96.166 94.8384V33.938C96.166 30.9753 93.7644 28.5739 90.8018 28.5737H79.4834ZM37.1943 28.5737C34.2316 28.5737 31.8301 30.9762 31.8301 33.939V47.8677C31.8301 50.8305 34.2316 53.2319 37.1943 53.2319H55.4766C58.4393 53.2319 60.8418 50.8305 60.8418 47.8677V33.939C60.8418 30.9762 58.4393 28.5737 55.4766 28.5737H37.1943Z" fill="#101827" stroke="white" stroke-width="4"/>
</svg>
