<svg width="32" height="33" viewBox="0 0 32 33" fill="none" xmlns="http://www.w3.org/2000/svg">
<path fill-rule="evenodd" clip-rule="evenodd" d="M7.99701 0.388184C3.57873 0.388184 -0.00299072 3.96991 -0.00299072 8.38818V24.3882C-0.00299072 28.8065 3.57873 32.3882 7.99701 32.3882H23.997C28.4153 32.3882 31.997 28.8065 31.997 24.3882V8.38818C31.997 3.96991 28.4153 0.388184 23.997 0.388184H7.99701ZM25.1087 8.26809C25.1087 7.18347 24.2295 6.3042 23.1449 6.3042H20.1267C19.0421 6.3042 18.1628 7.18346 18.1628 8.26809V24.5082C18.1628 25.5928 19.0421 26.4721 20.1267 26.4721H23.1449C24.2295 26.4721 25.1087 25.5928 25.1087 24.5082V8.26809ZM15.6888 17.5557C15.6888 16.471 14.8096 15.5918 13.725 15.5918H8.84957C7.76495 15.5918 6.88568 16.471 6.88568 17.5557V24.5082C6.88568 25.5929 7.76495 26.4721 8.84957 26.4721H13.725C14.8096 26.4721 15.6888 25.5929 15.6888 24.5082V17.5557ZM13.725 6.30438C14.8096 6.30438 15.6888 7.18364 15.6888 8.26827V11.9827C15.6888 13.0674 14.8096 13.9466 13.725 13.9466H8.84957C7.76495 13.9466 6.88568 13.0674 6.88568 11.9827V8.26827C6.88568 7.18364 7.76495 6.30438 8.84957 6.30438H13.725Z" fill="white"/>
</svg>
